<svg width="175" height="242" viewBox="0 0 175 242" fill="none" xmlns="http://www.w3.org/2000/svg">
<path fill-rule="evenodd" clip-rule="evenodd" d="M85 56L54 81C51 84 54 90 58 89L87 64L117 89C121 90 124 84 121 81L112 74V64H104V68L90 56C89 55 86 55 85 56Z" fill="#3778DB"/>
<path fill-rule="evenodd" clip-rule="evenodd" d="M115 91V106C115 113 109 120 102 120H73C66 120 60 113 60 106V91L87 68L115 91ZM92 91H89V98H95V95C95 93 94 91 92 91ZM86 91H83C81 91 80 93 80 95V98H86V91ZM80 100V103C80 105 81 107 83 107H86V100H80ZM89 107H92C94 107 95 105 95 103V100H89V107Z" fill="#3778DB"/>
<path fill-rule="evenodd" clip-rule="evenodd" d="M88 242C62 202 0 134 0 88C0 39 39 0 88 0C136 0 175 39 175 88C175 134 113 202 88 242ZM88 31C119 31 144 56 144 87C144 118 119 144 88 144C56 144 31 118 31 87C31 56 56 31 88 31Z" fill="#3778DB"/>
</svg>
